:FULLY-SPECIFIED
:FORCE-ALL-JOINTS-BE-3DOF
:DEGREES
917
root 2.44545 15.9285 32.0037 1.35372 11.3477 2.89529
lfemur -5.79278 13.9377 -5.44547
ltibia 22.4932 -0 0
lfoot -23.563 -8.13648 0.522758
ltoes -16.8665 0 0
rfemur -41.818 -20.8391 2.76299
rtibia 76.5774 -0 0
rfoot -0.19523 6.36204 1.21599
rtoes -26.0958 0 0
lowerback 2.58786 -2.90298 -3.10313
upperback 0.540346 -3.84307 -4.64667
thorax -0.711035 -1.99961 -2.7854
lowerneck -7.31562 -1.81899 2.04623
upperneck 3.52239 -2.87066 4.52315
head 2.46982 -1.25877 0.944028
lclavicle -2.69171e-14 -3.56027e-14 8.15014e-30
lhumerus -50.9462 -44.402 105.882
lradius 58.4042 -0 0
lwrist 20.277 0 0
lhand 35.1173 18.6211 0.379734
lfingers 7.12502 -0 0
lthumb 58.0694 32.9816 0.0319906
rclavicle -2.69171e-14 -3.56027e-14 8.15014e-30
rhumerus -26.6427 -0.812818 -34.2681
rradius 63.6533 -0 0
rwrist -19.4375 0 0
rhand -29.0417 -47.4869 1.23916
rfingers 7.12502 -0 0
rthumb -2.38598 -77.0439 1.16791
918
root 2.39831 15.9056 32.0389 1.59941 10.7088 3.02179
lfemur -5.29143 13.3587 -5.05348
ltibia 21.7452 -0 0
lfoot -23.8956 -8.44055 0.517462
ltoes -17.477 0 0
rfemur -41.2227 -20.4009 2.16336
rtibia 75.2565 -0 0
rfoot -0.891013 6.02197 1.20359
rtoes -26.9128 0 0
lowerback 2.31475 -2.8203 -2.97841
upperback 0.451977 -3.72197 -4.76335
thorax -0.66562 -1.9395 -2.99346
lowerneck -7.30012 -1.70911 2.10398
upperneck 3.45948 -2.72396 4.49118
head 2.44172 -1.18772 0.930529
lclavicle -2.56077e-14 -3.68036e-14 8.06782e-30
lhumerus -51.3136 -44.379 106.141
lradius 58.2781 -0 0
lwrist 20.525 0 0
lhand 35.4069 18.8746 0.37589
lfingers 7.12502 -0 0
lthumb 58.3211 33.0061 0.0316672
rclavicle -2.56077e-14 -3.68036e-14 8.06782e-30
rhumerus -25.684 -0.271983 -33.124
rradius 62.6632 -0 0
rwrist -19.3415 0 0
rhand -28.4847 -47.0546 1.22655
rfingers 7.12502 -0 0
rthumb -1.84859 -76.6218 1.15603
919
root 2.35117 15.8826 32.0742 1.84317 10.0694 3.14524
lfemur -4.79532 12.7765 -4.66761
ltibia 20.9973 -0 0
lfoot -24.2282 -8.74458 0.5104
ltoes -18.0876 0 0
rfemur -40.6341 -19.957 1.5703
rtibia 73.9357 -0 0
rfoot -1.58671 5.68207 1.18707
rtoes -27.7297 0 0
lowerback 2.04185 -2.73703 -2.85408
upperback 0.363373 -3.60105 -4.8802
thorax -0.620424 -1.87923 -3.20146
lowerneck -7.2845 -1.59924 2.16175
upperneck 3.3965 -2.57729 4.45905
head 2.41361 -1.11667 0.916996
lclavicle -2.42984e-14 -3.80044e-14 7.95805e-30
lhumerus -51.6807 -44.3549 106.399
lradius 58.1519 -0 0
lwrist 20.773 0 0
lhand 35.6966 19.128 0.370765
lfingers 7.12502 -0 0
lthumb 58.5728 33.0307 0.0312359
rclavicle -2.42984e-14 -3.80044e-14 7.95805e-30
rhumerus -24.7147 0.249527 -31.9709
rradius 61.6732 -0 0
rwrist -19.2454 0 0
rhand -27.9278 -46.6225 1.20974
rfingers 7.12502 -0 0
rthumb -1.31131 -76.1998 1.14019
920
root 2.30404 15.8597 32.1095 2.08506 9.42948 3.26569
lfemur -4.30436 12.191 -4.28779
ltibia 20.2493 -0 0
lfoot -24.5608 -9.04856 0.501574
ltoes -18.6982 0 0
rfemur -40.052 -19.5073 0.983767
rtibia 72.6148 -0 0
rfoot -2.28228 5.34241 1.16643
rtoes -28.5467 0 0
lowerback 1.76914 -2.65316 -2.73017
upperback 0.274534 -3.48031 -4.99722
thorax -0.57545 -1.81879 -3.4094
lowerneck -7.26878 -1.48939 2.21954
upperneck 3.33344 -2.43066 4.42677
head 2.38549 -1.04562 0.903428
lclavicle -2.2989e-14 -3.92052e-14 7.82085e-30
lhumerus -52.0474 -44.3295 106.657
lradius 58.0258 -0 0
lwrist 21.0211 0 0
lhand 35.9861 19.3814 0.364358
lfingers 7.12502 -0 0
lthumb 58.8245 33.0552 0.0306969
rclavicle -2.2989e-14 -3.92052e-14 7.82085e-30
rhumerus -23.735 0.751351 -30.8092
rradius 60.6831 -0 0
rwrist -19.1494 0 0
rhand -27.3711 -46.1905 1.18873
rfingers 7.12502 -0 0
rthumb -0.774166 -75.778 1.1204
921
root 2.2569 15.8367 32.1448 2.32516 8.78906 3.3832
lfemur -3.81843 11.6024 -3.91391
ltibia 19.5013 -0 0
lfoot -24.8933 -9.35248 0.490985
ltoes -19.3087 0 0
rfemur -39.4765 -19.0521 0.403715
rtibia 71.2939 -0 0
rfoot -2.97772 5.00302 1.14166
rtoes -29.3637 0 0
lowerback 1.49664 -2.56871 -2.60666
upperback 0.185459 -3.35976 -5.11441
thorax -0.530696 -1.75819 -3.61729
lowerneck -7.25295 -1.37955 2.27737
upperneck 3.2703 -2.28407 4.39432
head 2.35734 -0.974588 0.889825
lclavicle -2.16797e-14 -4.0406e-14 7.6562e-30
lhumerus -52.4138 -44.303 106.915
lradius 57.8997 -0 0
lwrist 21.2691 0 0
lhand 36.2757 19.6348 0.356672
lfingers 7.12502 -0 0
lthumb 59.0762 33.0798 0.03005
rclavicle -2.16797e-14 -4.0406e-14 7.6562e-30
rhumerus -22.7453 1.23314 -29.6388
rradius 59.693 -0 0
rwrist -19.0534 0 0
rhand -26.8146 -45.7588 1.16353
rfingers 7.12502 -0 0
rthumb -0.237183 -75.3564 1.09666
922
root 2.20976 15.8138 32.18 2.56353 8.14817 3.49779
lfemur -3.33742 11.0107 -3.54591
ltibia 18.7533 -0 0
lfoot -25.2257 -9.65634 0.478631
ltoes -19.9193 0 0
rfemur -38.9074 -18.5915 -0.169906
rtibia 69.973 -0 0
rfoot -3.67299 4.66396 1.11278
rtoes -30.1807 0 0
lowerback 1.22433 -2.48368 -2.48357
upperback 0.0961476 -3.23939 -5.23178
thorax -0.486165 -1.69743 -3.82513
lowerneck -7.23701 -1.26973 2.33522
upperneck 3.20709 -2.13751 4.36172
head 2.32919 -0.903559 0.876188
lclavicle -2.03704e-14 -4.16068e-14 7.46411e-30
lhumerus -52.7799 -44.2753 107.172
lradius 57.7735 -0 0
lwrist 21.5172 0 0
lhand 36.5652 19.8881 0.347705
lfingers 7.12502 -0 0
lthumb 59.3279 33.1043 0.0292954
rclavicle -2.03704e-14 -4.16068e-14 7.46411e-30
rhumerus -21.7456 1.69453 -28.4601
rradius 58.7029 -0 0
rwrist -18.9574 0 0
rhand -26.2582 -45.3273 1.13414
rfingers 7.12502 -0 0
rthumb 0.299605 -74.9351 1.06896
923
root 2.16262 15.7909 32.2153 2.80024 7.50681 3.60952
lfemur -2.86122 10.4161 -3.18369
ltibia 18.0053 -0 0
lfoot -25.5581 -9.96012 0.464516
ltoes -20.5298 0 0
rfemur -38.3446 -18.1256 -0.737148
rtibia 68.6522 -0 0
rfoot -4.36808 4.32528 1.07979
rtoes -30.9977 0 0
lowerback 0.952232 -2.39806 -2.36088
upperback 0.00660035 -3.11919 -5.34932
thorax -0.441855 -1.63651 -4.03291
lowerneck -7.22095 -1.15993 2.3931
upperneck 3.1438 -1.99099 4.32896
head 2.30101 -0.832537 0.862516
lclavicle -1.9061e-14 -4.28077e-14 7.24457e-30
lhumerus -53.1457 -44.2464 107.429
lradius 57.6474 -0 0
lwrist 21.7652 0 0
lhand 36.8547 20.1414 0.337458
lfingers 7.12502 -0 0
lthumb 59.5796 33.1288 0.0284331
rclavicle -1.9061e-14 -4.28077e-14 7.24457e-30
rhumerus -20.7364 2.1352 -27.2731
rradius 57.7128 -0 0
rwrist -18.8614 0 0
rhand -25.7021 -44.8962 1.10056
rfingers 7.12502 -0 0
rthumb 0.83617 -74.514 1.03733
924
root 2.11548 15.7679 32.2506 3.03536 6.865 3.71843
lfemur -2.38973 9.81849 -2.82717
ltibia 17.2573 -0 0
lfoot -25.8903 -10.2638 0.448638
ltoes -21.1404 0 0
rfemur -37.7883 -17.6544 -1.29806
rtibia 67.3313 -0 0
rfoot -5.06294 3.98703 1.04269
rtoes -31.8147 0 0
lowerback 0.68033 -2.31186 -2.23862
upperback -0.0831836 -2.99919 -5.46704
thorax -0.397768 -1.57543 -4.24064
lowerneck -7.20479 -1.05014 2.45101
upperneck 3.08044 -1.8445 4.29604
head 2.27282 -0.761521 0.848809
lclavicle -1.77517e-14 -4.40085e-14 6.9976e-30
lhumerus -53.5111 -44.2164 107.685
lradius 57.5213 -0 0
lwrist 22.0133 0 0
lhand 37.1441 20.3947 0.325931
lfingers 7.12502 -0 0
lthumb 59.8313 33.1533 0.027463
rclavicle -1.77517e-14 -4.40085e-14 6.9976e-30
rhumerus -19.718 2.55481 -26.0782
rradius 56.7228 -0 0
rwrist -18.7653 0 0
rhand -25.1463 -44.4654 1.0628
rfingers 7.12502 -0 0
rthumb 1.37248 -74.0933 1.00175
925
root 2.06834 15.745 32.2858 3.26895 6.22276 3.82454
lfemur -1.92285 9.21806 -2.47627
ltibia 16.5094 -0 0
lfoot -26.2225 -10.5674 0.431
ltoes -21.751 0 0
rfemur -37.2382 -17.178 -1.85271
rtibia 66.0104 -0 0
rfoot -5.75757 3.64926 1.00149
rtoes -32.6317 0 0
lowerback 0.408628 -2.22508 -2.11677
upperback -0.173205 -2.87937 -5.58493
thorax -0.353904 -1.51419 -4.44832
lowerneck -7.18852 -0.94037 2.50895
upperneck 3.01699 -1.69805 4.26296
head 2.24461 -0.690512 0.835068
lclavicle -1.64423e-14 -4.52093e-14 6.72318e-30
lhumerus -53.876 -44.1852 107.941
lradius 57.3951 -0 0
lwrist 22.2613 0 0
lhand 37.4335 20.6478 0.313126
lfingers 7.12502 -0 0
lthumb 60.083 33.1779 0.0263851
rclavicle -1.64423e-14 -4.52093e-14 6.72318e-30
rhumerus -18.6907 2.95304 -24.8757
rradius 55.7327 -0 0
rwrist -18.6693 0 0
rhand -24.5908 -44.035 1.02086
rfingers 7.12502 -0 0
rthumb 1.90851 -73.6729 0.962235
926
root 2.02121 15.722 32.3211 3.50107 5.58009 3.9279
lfemur -1.46046 8.61483 -2.13091
ltibia 15.7614 -0 0
lfoot -26.5546 -10.8709 0.411602
ltoes -22.3615 0 0
rfemur -36.6944 -16.6967 -2.40115
rtibia 64.6896 -0 0
rfoot -6.45194 3.31202 0.956206
rtoes -33.4487 0 0
lowerback 0.137128 -2.13773 -1.99534
upperback -0.263463 -2.75973 -5.70299
thorax -0.310264 -1.45279 -4.65594
lowerneck -7.17213 -0.830615 2.56692
upperneck 2.95347 -1.55164 4.22972
head 2.21639 -0.61951 0.821292
lclavicle -1.5133e-14 -4.64101e-14 6.42133e-30
lhumerus -54.2406 -44.1528 108.197
lradius 57.269 -0 0
lwrist 22.5093 0 0
lhand 37.7228 20.9009 0.299043
lfingers 7.12502 -0 0
lthumb 60.3347 33.2024 0.0251996
rclavicle -1.5133e-14 -4.64101e-14 6.42133e-30
rhumerus -17.6549 3.32958 -23.6657
rradius 54.7426 -0 0
rwrist -18.5733 0 0
rhand -24.0356 -43.605 0.974754
rfingers 7.12502 -0 0
rthumb 2.44423 -73.2529 0.918793
